<svg xmlns="http://www.w3.org/2000/svg" width="40" height="40" viewBox="0 0 40 40" fill="none">
<path d="M11.4108 24.9444C11.409 24.6048 11.5417 24.2783 11.7799 24.0361C12.0181 23.794 12.3424 23.656 12.6821 23.6521H12.9016C13.2414 23.6556 13.5659 23.7936 13.8042 24.0358C14.0424 24.278 14.175 24.6047 14.1729 24.9444V34.7434L15.3846 35.9735V24.6984C15.3832 24.4235 15.4906 24.1591 15.6835 23.9631C15.8763 23.767 16.1388 23.6553 16.4138 23.6521H16.591C16.8662 23.6549 17.1291 23.7665 17.3222 23.9626C17.5153 24.1587 17.6229 24.4232 17.6215 24.6984V38.2487L19.3412 40V24.5066C19.3398 24.2821 19.4274 24.0661 19.5848 23.906C19.7422 23.7458 19.9567 23.6546 20.1812 23.6521H20.3267C20.5513 23.6546 20.7657 23.7458 20.9232 23.906C21.0806 24.0661 21.1682 24.2821 21.1667 24.5066V39.4802L23.5333 37.0741V24.2751C23.5322 24.1114 23.5961 23.9539 23.7109 23.8372C23.8257 23.7204 23.982 23.6539 24.1458 23.6521H24.2516C24.4153 23.6539 24.5717 23.7204 24.6865 23.8372C24.8013 23.9539 24.8651 24.1114 24.8641 24.2751V35.7209L26.9806 33.5688V24.2064C26.9799 24.0595 27.0374 23.9183 27.1405 23.8137C27.2437 23.7091 27.384 23.6495 27.5309 23.6481H27.6248C27.772 23.6492 27.9127 23.7086 28.0161 23.8132C28.1195 23.9178 28.1772 24.0592 28.1765 24.2064V32.3545L40 20.3333L20.0013 0L0 20.3333L11.4108 31.9352V24.9444ZM6.23586 18.6217C6.2341 18.3596 6.33626 18.1075 6.51997 17.9206C6.70369 17.7337 6.954 17.6271 7.21609 17.6243H32.3857C32.6503 17.6243 32.904 17.7294 33.091 17.9165C33.2781 18.1035 33.3832 18.3572 33.3832 18.6217C33.3832 18.8862 33.2781 19.1399 33.091 19.3269C32.904 19.514 32.6503 19.619 32.3857 19.619H7.21609C6.95411 19.6159 6.70401 19.5093 6.52036 19.3224C6.33672 19.1356 6.23445 18.8837 6.23586 18.6217ZM9.00589 21.9749C9.00466 21.8699 9.02429 21.7657 9.06363 21.6683C9.10296 21.5709 9.16123 21.4824 9.23506 21.4077C9.30888 21.333 9.39679 21.2737 9.4937 21.2332C9.5906 21.1928 9.69458 21.1719 9.79959 21.172H30.2057C30.4132 21.1804 30.6094 21.2687 30.7532 21.4185C30.8971 21.5683 30.9774 21.7679 30.9774 21.9755C30.9774 22.1832 30.8971 22.3828 30.7532 22.5326C30.6094 22.6823 30.4132 22.7707 30.2057 22.7791H9.79694C9.58561 22.7767 9.38382 22.6907 9.23561 22.5401C9.08741 22.3894 9.00482 22.1862 9.00589 21.9749Z" fill="white"/>
</svg>